<svg width="572" height="68" viewBox="0 0 572 68" fill="none" xmlns="http://www.w3.org/2000/svg">
<path d="M31.2734 13.9453H32.6875V15.4688H31.2734V18H29.375V15.4688H24.4609L24.4062 14.3125L29.3125 6.625H31.2734V13.9453ZM26.3984 13.9453H29.375V9.19531L29.2344 9.44531L26.3984 13.9453ZM41.3594 13.2109C41.3594 14.8464 41.0521 16.0807 40.4375 16.9141C39.8281 17.7422 38.8984 18.1562 37.6484 18.1562C36.4193 18.1562 35.4922 17.7526 34.8672 16.9453C34.2474 16.1328 33.9297 14.9323 33.9141 13.3438V11.375C33.9141 9.73958 34.2188 8.51302 34.8281 7.69531C35.4427 6.8776 36.3776 6.46875 37.6328 6.46875C38.8776 6.46875 39.8047 6.86719 40.4141 7.66406C41.0286 8.46094 41.3438 9.65365 41.3594 11.2422V13.2109ZM39.4609 11.0859C39.4609 10.0182 39.3151 9.23698 39.0234 8.74219C38.7318 8.24219 38.2682 7.99219 37.6328 7.99219C37.013 7.99219 36.5573 8.22917 36.2656 8.70312C35.974 9.17188 35.8203 9.90625 35.8047 10.9062V13.4844C35.8047 14.5469 35.9531 15.3385 36.25 15.8594C36.5469 16.3802 37.013 16.6406 37.6484 16.6406C38.2578 16.6406 38.7083 16.401 39 15.9219C39.2917 15.4375 39.4453 14.6823 39.4609 13.6562V11.0859ZM42.9609 8.8125C42.9609 8.125 43.1823 7.5625 43.625 7.125C44.0677 6.68229 44.6484 6.46094 45.3672 6.46094C46.0964 6.46094 46.6797 6.68229 47.1172 7.125C47.5599 7.5625 47.7812 8.13802 47.7812 8.85156V9.41406C47.7812 10.0964 47.5599 10.6562 47.1172 11.0938C46.6797 11.5312 46.1016 11.75 45.3828 11.75C44.6797 11.75 44.099 11.5365 43.6406 11.1094C43.1875 10.6771 42.9609 10.0964 42.9609 9.36719V8.8125ZM44.2891 9.41406C44.2891 9.77344 44.388 10.0651 44.5859 10.2891C44.7891 10.5078 45.0547 10.6172 45.3828 10.6172C45.7057 10.6172 45.9661 10.5078 46.1641 10.2891C46.362 10.0651 46.4609 9.76302 46.4609 9.38281V8.8125C46.4609 8.45312 46.3594 8.16146 46.1562 7.9375C45.9583 7.71354 45.6953 7.60156 45.3672 7.60156C45.0391 7.60156 44.776 7.71615 44.5781 7.94531C44.3854 8.16927 44.2891 8.46615 44.2891 8.83594V9.41406ZM48.4297 15.2109C48.4297 14.513 48.6562 13.9479 49.1094 13.5156C49.5625 13.0833 50.1406 12.8672 50.8438 12.8672C51.5521 12.8672 52.1302 13.0833 52.5781 13.5156C53.0312 13.9479 53.2578 14.5312 53.2578 15.2656V15.8203C53.2578 16.4974 53.0391 17.0573 52.6016 17.5C52.1693 17.9375 51.5885 18.1562 50.8594 18.1562C50.1302 18.1562 49.5417 17.9401 49.0938 17.5078C48.651 17.0703 48.4297 16.4948 48.4297 15.7812V15.2109ZM49.7578 15.8203C49.7578 16.1745 49.8594 16.4661 50.0625 16.6953C50.2708 16.9193 50.5365 17.0312 50.8594 17.0312C51.1927 17.0312 51.4531 16.9245 51.6406 16.7109C51.8333 16.4922 51.9297 16.1875 51.9297 15.7969V15.2109C51.9297 14.8464 51.8281 14.5547 51.625 14.3359C51.4219 14.1172 51.1615 14.0078 50.8438 14.0078C50.5208 14.0078 50.2578 14.1172 50.0547 14.3359C49.8568 14.5547 49.7578 14.8568 49.7578 15.2422V15.8203ZM45.7734 17.1484L44.7969 16.5859L50.3516 7.69531L51.3281 8.25781L45.7734 17.1484ZM66.2969 13.8594C66.2969 15.1667 66 16.2109 65.4062 16.9922C64.8125 17.7682 64.0156 18.1562 63.0156 18.1562C62.0885 18.1562 61.3464 17.8516 60.7891 17.2422V21.25H58.8906V9.54688H60.6406L60.7188 10.4062C61.276 9.72917 62.0339 9.39062 62.9922 9.39062C64.0234 9.39062 64.8307 9.77604 65.4141 10.5469C66.0026 11.3125 66.2969 12.3776 66.2969 13.7422V13.8594ZM64.4062 13.6953C64.4062 12.8516 64.237 12.1823 63.8984 11.6875C63.5651 11.1927 63.0859 10.9453 62.4609 10.9453C61.6849 10.9453 61.1276 11.2656 60.7891 11.9062V15.6562C61.1328 16.3125 61.6953 16.6406 62.4766 16.6406C63.0807 16.6406 63.5521 16.3984 63.8906 15.9141C64.2344 15.4245 64.4062 14.6849 64.4062 13.6953ZM69.9297 18H68.0312V6H69.9297V18ZM77.0547 18C76.9714 17.8385 76.8984 17.5755 76.8359 17.2109C76.2318 17.8411 75.4922 18.1562 74.6172 18.1562C73.7682 18.1562 73.0755 17.9141 72.5391 17.4297C72.0026 16.9453 71.7344 16.3464 71.7344 15.6328C71.7344 14.7318 72.0677 14.0417 72.7344 13.5625C73.4062 13.0781 74.3646 12.8359 75.6094 12.8359H76.7734V12.2812C76.7734 11.8438 76.651 11.4948 76.4062 11.2344C76.1615 10.9688 75.7891 10.8359 75.2891 10.8359C74.8568 10.8359 74.5026 10.9453 74.2266 11.1641C73.9505 11.3776 73.8125 11.651 73.8125 11.9844H71.9141C71.9141 11.5208 72.0677 11.0885 72.375 10.6875C72.6823 10.2812 73.099 9.96354 73.625 9.73438C74.1562 9.50521 74.7474 9.39062 75.3984 9.39062C76.388 9.39062 77.1771 9.64062 77.7656 10.1406C78.3542 10.6354 78.6562 11.3333 78.6719 12.2344V16.0469C78.6719 16.8073 78.7786 17.4141 78.9922 17.8672V18H77.0547ZM74.9688 16.6328C75.3438 16.6328 75.6953 16.5417 76.0234 16.3594C76.3568 16.1771 76.6068 15.9323 76.7734 15.625V14.0312H75.75C75.0469 14.0312 74.5182 14.1536 74.1641 14.3984C73.8099 14.6432 73.6328 14.9896 73.6328 15.4375C73.6328 15.8021 73.7526 16.0938 73.9922 16.3125C74.237 16.526 74.5625 16.6328 74.9688 16.6328ZM82.4219 9.54688L82.4766 10.5234C83.1016 9.76823 83.9219 9.39062 84.9375 9.39062C86.6979 9.39062 87.5938 10.3984 87.625 12.4141V18H85.7266V12.5234C85.7266 11.987 85.6094 11.5911 85.375 11.3359C85.1458 11.0755 84.7682 10.9453 84.2422 10.9453C83.4766 10.9453 82.9062 11.2917 82.5312 11.9844V18H80.6328V9.54688H82.4219ZM91.9453 7.49219V9.54688H93.4375V10.9531H91.9453V15.6719C91.9453 15.9948 92.0078 16.2292 92.1328 16.375C92.263 16.5156 92.4922 16.5859 92.8203 16.5859C93.0391 16.5859 93.2604 16.5599 93.4844 16.5078V17.9766C93.0521 18.0964 92.6354 18.1562 92.2344 18.1562C90.776 18.1562 90.0469 17.3516 90.0469 15.7422V10.9531H88.6562V9.54688H90.0469V7.49219H91.9453ZM96.9141 18H95.0156V9.54688H96.9141V18ZM94.8984 7.35156C94.8984 7.0599 94.9896 6.81771 95.1719 6.625C95.3594 6.43229 95.625 6.33594 95.9688 6.33594C96.3125 6.33594 96.5781 6.43229 96.7656 6.625C96.9531 6.81771 97.0469 7.0599 97.0469 7.35156C97.0469 7.63802 96.9531 7.8776 96.7656 8.07031C96.5781 8.25781 96.3125 8.35156 95.9688 8.35156C95.625 8.35156 95.3594 8.25781 95.1719 8.07031C94.9896 7.8776 94.8984 7.63802 94.8984 7.35156ZM100.75 9.54688L100.805 10.5234C101.43 9.76823 102.25 9.39062 103.266 9.39062C105.026 9.39062 105.922 10.3984 105.953 12.4141V18H104.055V12.5234C104.055 11.987 103.938 11.5911 103.703 11.3359C103.474 11.0755 103.096 10.9453 102.57 10.9453C101.805 10.9453 101.234 11.2917 100.859 11.9844V18H98.9609V9.54688H100.75ZM107.562 13.7109C107.562 12.3984 107.87 11.3516 108.484 10.5703C109.104 9.78385 109.924 9.39062 110.945 9.39062C111.909 9.39062 112.667 9.72656 113.219 10.3984L113.305 9.54688H115.016V17.7422C115.016 18.8516 114.669 19.7266 113.977 20.3672C113.289 21.0078 112.359 21.3281 111.188 21.3281C110.568 21.3281 109.961 21.1979 109.367 20.9375C108.779 20.6823 108.331 20.3464 108.023 19.9297L108.922 18.7891C109.505 19.4818 110.224 19.8281 111.078 19.8281C111.708 19.8281 112.206 19.6562 112.57 19.3125C112.935 18.974 113.117 18.474 113.117 17.8125V17.2422C112.57 17.8516 111.841 18.1562 110.93 18.1562C109.94 18.1562 109.13 17.763 108.5 16.9766C107.875 16.1901 107.562 15.1016 107.562 13.7109ZM109.453 13.875C109.453 14.724 109.625 15.3932 109.969 15.8828C110.318 16.3672 110.799 16.6094 111.414 16.6094C112.18 16.6094 112.747 16.2812 113.117 15.625V11.9062C112.758 11.2656 112.195 10.9453 111.43 10.9453C110.805 10.9453 110.318 11.1927 109.969 11.6875C109.625 12.1823 109.453 12.9115 109.453 13.875ZM123.336 7.49219V9.54688H124.828V10.9531H123.336V15.6719C123.336 15.9948 123.398 16.2292 123.523 16.375C123.654 16.5156 123.883 16.5859 124.211 16.5859C124.43 16.5859 124.651 16.5599 124.875 16.5078V17.9766C124.443 18.0964 124.026 18.1562 123.625 18.1562C122.167 18.1562 121.438 17.3516 121.438 15.7422V10.9531H120.047V9.54688H121.438V7.49219H123.336ZM130.711 11.2812C130.461 11.2396 130.203 11.2188 129.938 11.2188C129.068 11.2188 128.482 11.5521 128.18 12.2188V18H126.281V9.54688H128.094L128.141 10.4922C128.599 9.75781 129.234 9.39062 130.047 9.39062C130.318 9.39062 130.542 9.42708 130.719 9.5L130.711 11.2812ZM135.477 18.1562C134.273 18.1562 133.297 17.7786 132.547 17.0234C131.802 16.263 131.43 15.2526 131.43 13.9922V13.7578C131.43 12.9141 131.591 12.1615 131.914 11.5C132.242 10.8333 132.701 10.3151 133.289 9.94531C133.878 9.57552 134.534 9.39062 135.258 9.39062C136.409 9.39062 137.297 9.75781 137.922 10.4922C138.552 11.2266 138.867 12.2656 138.867 13.6094V14.375H133.344C133.401 15.0729 133.633 15.625 134.039 16.0312C134.451 16.4375 134.966 16.6406 135.586 16.6406C136.456 16.6406 137.164 16.2891 137.711 15.5859L138.734 16.5625C138.396 17.0677 137.943 17.4609 137.375 17.7422C136.812 18.0182 136.18 18.1562 135.477 18.1562ZM135.25 10.9141C134.729 10.9141 134.307 11.0964 133.984 11.4609C133.667 11.8255 133.464 12.3333 133.375 12.9844H136.992V12.8438C136.951 12.2083 136.781 11.7292 136.484 11.4062C136.188 11.0781 135.776 10.9141 135.25 10.9141ZM144.07 18.1562C142.867 18.1562 141.891 17.7786 141.141 17.0234C140.396 16.263 140.023 15.2526 140.023 13.9922V13.7578C140.023 12.9141 140.185 12.1615 140.508 11.5C140.836 10.8333 141.294 10.3151 141.883 9.94531C142.471 9.57552 143.128 9.39062 143.852 9.39062C145.003 9.39062 145.891 9.75781 146.516 10.4922C147.146 11.2266 147.461 12.2656 147.461 13.6094V14.375H141.938C141.995 15.0729 142.227 15.625 142.633 16.0312C143.044 16.4375 143.56 16.6406 144.18 16.6406C145.049 16.6406 145.758 16.2891 146.305 15.5859L147.328 16.5625C146.99 17.0677 146.536 17.4609 145.969 17.7422C145.406 18.0182 144.773 18.1562 144.07 18.1562ZM143.844 10.9141C143.323 10.9141 142.901 11.0964 142.578 11.4609C142.26 11.8255 142.057 12.3333 141.969 12.9844H145.586V12.8438C145.544 12.2083 145.375 11.7292 145.078 11.4062C144.781 11.0781 144.37 10.9141 143.844 10.9141ZM153.68 15.7031C153.68 15.3646 153.539 15.1068 153.258 14.9297C152.982 14.7526 152.521 14.5964 151.875 14.4609C151.229 14.3255 150.69 14.1536 150.258 13.9453C149.31 13.487 148.836 12.8229 148.836 11.9531C148.836 11.224 149.143 10.6146 149.758 10.125C150.372 9.63542 151.154 9.39062 152.102 9.39062C153.112 9.39062 153.927 9.64062 154.547 10.1406C155.172 10.6406 155.484 11.2891 155.484 12.0859H153.586C153.586 11.7214 153.451 11.4193 153.18 11.1797C152.909 10.9349 152.549 10.8125 152.102 10.8125C151.685 10.8125 151.344 10.9089 151.078 11.1016C150.818 11.2943 150.688 11.5521 150.688 11.875C150.688 12.1667 150.81 12.3932 151.055 12.5547C151.299 12.7161 151.794 12.8802 152.539 13.0469C153.284 13.2083 153.867 13.4036 154.289 13.6328C154.716 13.8568 155.031 14.1276 155.234 14.4453C155.443 14.763 155.547 15.1484 155.547 15.6016C155.547 16.362 155.232 16.9792 154.602 17.4531C153.971 17.9219 153.146 18.1562 152.125 18.1562C151.432 18.1562 150.815 18.0312 150.273 17.7812C149.732 17.5312 149.31 17.1875 149.008 16.75C148.706 16.3125 148.555 15.8411 148.555 15.3359H150.398C150.424 15.7839 150.594 16.1302 150.906 16.375C151.219 16.6146 151.633 16.7344 152.148 16.7344C152.648 16.7344 153.029 16.6406 153.289 16.4531C153.549 16.2604 153.68 16.0104 153.68 15.7031Z" fill="white"/>
<rect y="4" width="16" height="16" rx="4" fill="#BEF3C0"/>
<path d="M29.9922 60H28.1016V50.8672L25.3125 51.8203V50.2188L29.75 48.5859H29.9922V60ZM41.3594 55.2109C41.3594 56.8464 41.0521 58.0807 40.4375 58.9141C39.8281 59.7422 38.8984 60.1562 37.6484 60.1562C36.4193 60.1562 35.4922 59.7526 34.8672 58.9453C34.2474 58.1328 33.9297 56.9323 33.9141 55.3438V53.375C33.9141 51.7396 34.2188 50.513 34.8281 49.6953C35.4427 48.8776 36.3776 48.4688 37.6328 48.4688C38.8776 48.4688 39.8047 48.8672 40.4141 49.6641C41.0286 50.4609 41.3438 51.6536 41.3594 53.2422V55.2109ZM39.4609 53.0859C39.4609 52.0182 39.3151 51.237 39.0234 50.7422C38.7318 50.2422 38.2682 49.9922 37.6328 49.9922C37.013 49.9922 36.5573 50.2292 36.2656 50.7031C35.974 51.1719 35.8203 51.9062 35.8047 52.9062V55.4844C35.8047 56.5469 35.9531 57.3385 36.25 57.8594C36.5469 58.3802 37.013 58.6406 37.6484 58.6406C38.2578 58.6406 38.7083 58.401 39 57.9219C39.2917 57.4375 39.4453 56.6823 39.4609 55.6562V53.0859ZM42.9609 50.8125C42.9609 50.125 43.1823 49.5625 43.625 49.125C44.0677 48.6823 44.6484 48.4609 45.3672 48.4609C46.0964 48.4609 46.6797 48.6823 47.1172 49.125C47.5599 49.5625 47.7812 50.138 47.7812 50.8516V51.4141C47.7812 52.0964 47.5599 52.6562 47.1172 53.0938C46.6797 53.5312 46.1016 53.75 45.3828 53.75C44.6797 53.75 44.099 53.5365 43.6406 53.1094C43.1875 52.6771 42.9609 52.0964 42.9609 51.3672V50.8125ZM44.2891 51.4141C44.2891 51.7734 44.388 52.0651 44.5859 52.2891C44.7891 52.5078 45.0547 52.6172 45.3828 52.6172C45.7057 52.6172 45.9661 52.5078 46.1641 52.2891C46.362 52.0651 46.4609 51.763 46.4609 51.3828V50.8125C46.4609 50.4531 46.3594 50.1615 46.1562 49.9375C45.9583 49.7135 45.6953 49.6016 45.3672 49.6016C45.0391 49.6016 44.776 49.7161 44.5781 49.9453C44.3854 50.1693 44.2891 50.4661 44.2891 50.8359V51.4141ZM48.4297 57.2109C48.4297 56.513 48.6562 55.9479 49.1094 55.5156C49.5625 55.0833 50.1406 54.8672 50.8438 54.8672C51.5521 54.8672 52.1302 55.0833 52.5781 55.5156C53.0312 55.9479 53.2578 56.5312 53.2578 57.2656V57.8203C53.2578 58.4974 53.0391 59.0573 52.6016 59.5C52.1693 59.9375 51.5885 60.1562 50.8594 60.1562C50.1302 60.1562 49.5417 59.9401 49.0938 59.5078C48.651 59.0703 48.4297 58.4948 48.4297 57.7812V57.2109ZM49.7578 57.8203C49.7578 58.1745 49.8594 58.4661 50.0625 58.6953C50.2708 58.9193 50.5365 59.0312 50.8594 59.0312C51.1927 59.0312 51.4531 58.9245 51.6406 58.7109C51.8333 58.4922 51.9297 58.1875 51.9297 57.7969V57.2109C51.9297 56.8464 51.8281 56.5547 51.625 56.3359C51.4219 56.1172 51.1615 56.0078 50.8438 56.0078C50.5208 56.0078 50.2578 56.1172 50.0547 56.3359C49.8568 56.5547 49.7578 56.8568 49.7578 57.2422V57.8203ZM45.7734 59.1484L44.7969 58.5859L50.3516 49.6953L51.3281 50.2578L45.7734 59.1484ZM63.9453 60C63.862 59.8385 63.7891 59.5755 63.7266 59.2109C63.1224 59.8411 62.3828 60.1562 61.5078 60.1562C60.6589 60.1562 59.9661 59.9141 59.4297 59.4297C58.8932 58.9453 58.625 58.3464 58.625 57.6328C58.625 56.7318 58.9583 56.0417 59.625 55.5625C60.2969 55.0781 61.2552 54.8359 62.5 54.8359H63.6641V54.2812C63.6641 53.8438 63.5417 53.4948 63.2969 53.2344C63.0521 52.9688 62.6797 52.8359 62.1797 52.8359C61.7474 52.8359 61.3932 52.9453 61.1172 53.1641C60.8411 53.3776 60.7031 53.651 60.7031 53.9844H58.8047C58.8047 53.5208 58.9583 53.0885 59.2656 52.6875C59.5729 52.2812 59.9896 51.9635 60.5156 51.7344C61.0469 51.5052 61.638 51.3906 62.2891 51.3906C63.2786 51.3906 64.0677 51.6406 64.6562 52.1406C65.2448 52.6354 65.5469 53.3333 65.5625 54.2344V58.0469C65.5625 58.8073 65.6693 59.4141 65.8828 59.8672V60H63.9453ZM61.8594 58.6328C62.2344 58.6328 62.5859 58.5417 62.9141 58.3594C63.2474 58.1771 63.4974 57.9323 63.6641 57.625V56.0312H62.6406C61.9375 56.0312 61.4089 56.1536 61.0547 56.3984C60.7005 56.6432 60.5234 56.9896 60.5234 57.4375C60.5234 57.8021 60.6432 58.0938 60.8828 58.3125C61.1276 58.526 61.4531 58.6328 61.8594 58.6328ZM69.3125 51.5469L69.3672 52.5234C69.9922 51.7682 70.8125 51.3906 71.8281 51.3906C73.5885 51.3906 74.4844 52.3984 74.5156 54.4141V60H72.6172V54.5234C72.6172 53.987 72.5 53.5911 72.2656 53.3359C72.0365 53.0755 71.6589 52.9453 71.1328 52.9453C70.3672 52.9453 69.7969 53.2917 69.4219 53.9844V60H67.5234V51.5469H69.3125ZM78.4766 60H76.5781V51.5469H78.4766V60ZM76.4609 49.3516C76.4609 49.0599 76.5521 48.8177 76.7344 48.625C76.9219 48.4323 77.1875 48.3359 77.5312 48.3359C77.875 48.3359 78.1406 48.4323 78.3281 48.625C78.5156 48.8177 78.6094 49.0599 78.6094 49.3516C78.6094 49.638 78.5156 49.8776 78.3281 50.0703C78.1406 50.2578 77.875 50.3516 77.5312 50.3516C77.1875 50.3516 76.9219 50.2578 76.7344 50.0703C76.5521 49.8776 76.4609 49.638 76.4609 49.3516ZM82.3359 51.5469L82.3906 52.4297C82.9844 51.737 83.7969 51.3906 84.8281 51.3906C85.9583 51.3906 86.7318 51.8229 87.1484 52.6875C87.763 51.8229 88.6276 51.3906 89.7422 51.3906C90.6745 51.3906 91.3672 51.6484 91.8203 52.1641C92.2786 52.6797 92.513 53.4401 92.5234 54.4453V60H90.625V54.5C90.625 53.9635 90.5078 53.5703 90.2734 53.3203C90.0391 53.0703 89.651 52.9453 89.1094 52.9453C88.6771 52.9453 88.3229 53.0625 88.0469 53.2969C87.776 53.526 87.5859 53.8281 87.4766 54.2031L87.4844 60H85.5859V54.4375C85.5599 53.4427 85.0521 52.9453 84.0625 52.9453C83.3021 52.9453 82.763 53.2552 82.4453 53.875V60H80.5469V51.5469H82.3359ZM99.5234 60C99.4401 59.8385 99.3672 59.5755 99.3047 59.2109C98.7005 59.8411 97.9609 60.1562 97.0859 60.1562C96.237 60.1562 95.5443 59.9141 95.0078 59.4297C94.4714 58.9453 94.2031 58.3464 94.2031 57.6328C94.2031 56.7318 94.5365 56.0417 95.2031 55.5625C95.875 55.0781 96.8333 54.8359 98.0781 54.8359H99.2422V54.2812C99.2422 53.8438 99.1198 53.4948 98.875 53.2344C98.6302 52.9688 98.2578 52.8359 97.7578 52.8359C97.3255 52.8359 96.9714 52.9453 96.6953 53.1641C96.4193 53.3776 96.2812 53.651 96.2812 53.9844H94.3828C94.3828 53.5208 94.5365 53.0885 94.8438 52.6875C95.151 52.2812 95.5677 51.9635 96.0938 51.7344C96.625 51.5052 97.2161 51.3906 97.8672 51.3906C98.8568 51.3906 99.6458 51.6406 100.234 52.1406C100.823 52.6354 101.125 53.3333 101.141 54.2344V58.0469C101.141 58.8073 101.247 59.4141 101.461 59.8672V60H99.5234ZM97.4375 58.6328C97.8125 58.6328 98.1641 58.5417 98.4922 58.3594C98.8255 58.1771 99.0755 57.9323 99.2422 57.625V56.0312H98.2188C97.5156 56.0312 96.987 56.1536 96.6328 56.3984C96.2786 56.6432 96.1016 56.9896 96.1016 57.4375C96.1016 57.8021 96.2214 58.0938 96.4609 58.3125C96.7057 58.526 97.0312 58.6328 97.4375 58.6328ZM105.148 60H103.25V48H105.148V60ZM115.945 57.7031C115.945 57.3646 115.805 57.1068 115.523 56.9297C115.247 56.7526 114.786 56.5964 114.141 56.4609C113.495 56.3255 112.956 56.1536 112.523 55.9453C111.576 55.487 111.102 54.8229 111.102 53.9531C111.102 53.224 111.409 52.6146 112.023 52.125C112.638 51.6354 113.419 51.3906 114.367 51.3906C115.378 51.3906 116.193 51.6406 116.812 52.1406C117.438 52.6406 117.75 53.2891 117.75 54.0859H115.852C115.852 53.7214 115.716 53.4193 115.445 53.1797C115.174 52.9349 114.815 52.8125 114.367 52.8125C113.951 52.8125 113.609 52.9089 113.344 53.1016C113.083 53.2943 112.953 53.5521 112.953 53.875C112.953 54.1667 113.076 54.3932 113.32 54.5547C113.565 54.7161 114.06 54.8802 114.805 55.0469C115.549 55.2083 116.133 55.4036 116.555 55.6328C116.982 55.8568 117.297 56.1276 117.5 56.4453C117.708 56.763 117.812 57.1484 117.812 57.6016C117.812 58.362 117.497 58.9792 116.867 59.4531C116.237 59.9219 115.411 60.1562 114.391 60.1562C113.698 60.1562 113.081 60.0312 112.539 59.7812C111.997 59.5312 111.576 59.1875 111.273 58.75C110.971 58.3125 110.82 57.8411 110.82 57.3359H112.664C112.69 57.7839 112.859 58.1302 113.172 58.375C113.484 58.6146 113.898 58.7344 114.414 58.7344C114.914 58.7344 115.294 58.6406 115.555 58.4531C115.815 58.2604 115.945 58.0104 115.945 57.7031ZM124.523 60C124.44 59.8385 124.367 59.5755 124.305 59.2109C123.701 59.8411 122.961 60.1562 122.086 60.1562C121.237 60.1562 120.544 59.9141 120.008 59.4297C119.471 58.9453 119.203 58.3464 119.203 57.6328C119.203 56.7318 119.536 56.0417 120.203 55.5625C120.875 55.0781 121.833 54.8359 123.078 54.8359H124.242V54.2812C124.242 53.8438 124.12 53.4948 123.875 53.2344C123.63 52.9688 123.258 52.8359 122.758 52.8359C122.326 52.8359 121.971 52.9453 121.695 53.1641C121.419 53.3776 121.281 53.651 121.281 53.9844H119.383C119.383 53.5208 119.536 53.0885 119.844 52.6875C120.151 52.2812 120.568 51.9635 121.094 51.7344C121.625 51.5052 122.216 51.3906 122.867 51.3906C123.857 51.3906 124.646 51.6406 125.234 52.1406C125.823 52.6354 126.125 53.3333 126.141 54.2344V58.0469C126.141 58.8073 126.247 59.4141 126.461 59.8672V60H124.523ZM122.438 58.6328C122.812 58.6328 123.164 58.5417 123.492 58.3594C123.826 58.1771 124.076 57.9323 124.242 57.625V56.0312H123.219C122.516 56.0312 121.987 56.1536 121.633 56.3984C121.279 56.6432 121.102 56.9896 121.102 57.4375C121.102 57.8021 121.221 58.0938 121.461 58.3125C121.706 58.526 122.031 58.6328 122.438 58.6328ZM128.797 60V52.9531H127.508V51.5469H128.797V50.7734C128.797 49.8359 129.057 49.112 129.578 48.6016C130.099 48.0911 130.828 47.8359 131.766 47.8359C132.099 47.8359 132.453 47.8828 132.828 47.9766L132.781 49.4609C132.573 49.4193 132.331 49.3984 132.055 49.3984C131.148 49.3984 130.695 49.8646 130.695 50.7969V51.5469H132.414V52.9531H130.695V60H128.797ZM137.336 60.1562C136.133 60.1562 135.156 59.7786 134.406 59.0234C133.661 58.263 133.289 57.2526 133.289 55.9922V55.7578C133.289 54.9141 133.451 54.1615 133.773 53.5C134.102 52.8333 134.56 52.3151 135.148 51.9453C135.737 51.5755 136.393 51.3906 137.117 51.3906C138.268 51.3906 139.156 51.7578 139.781 52.4922C140.411 53.2266 140.727 54.2656 140.727 55.6094V56.375H135.203C135.26 57.0729 135.492 57.625 135.898 58.0312C136.31 58.4375 136.826 58.6406 137.445 58.6406C138.315 58.6406 139.023 58.2891 139.57 57.5859L140.594 58.5625C140.255 59.0677 139.802 59.4609 139.234 59.7422C138.672 60.0182 138.039 60.1562 137.336 60.1562ZM137.109 52.9141C136.589 52.9141 136.167 53.0964 135.844 53.4609C135.526 53.8255 135.323 54.3333 135.234 54.9844H138.852V54.8438C138.81 54.2083 138.641 53.7292 138.344 53.4062C138.047 53.0781 137.635 52.9141 137.109 52.9141ZM144.586 49.4922V51.5469H146.078V52.9531H144.586V57.6719C144.586 57.9948 144.648 58.2292 144.773 58.375C144.904 58.5156 145.133 58.5859 145.461 58.5859C145.68 58.5859 145.901 58.5599 146.125 58.5078V59.9766C145.693 60.0964 145.276 60.1562 144.875 60.1562C143.417 60.1562 142.688 59.3516 142.688 57.7422V52.9531H141.297V51.5469H142.688V49.4922H144.586ZM150.492 57.2812L152.211 51.5469H154.234L150.875 61.2812C150.359 62.7031 149.484 63.4141 148.25 63.4141C147.974 63.4141 147.669 63.3672 147.336 63.2734V61.8047L147.695 61.8281C148.174 61.8281 148.534 61.7396 148.773 61.5625C149.018 61.3906 149.211 61.099 149.352 60.6875L149.625 59.9609L146.656 51.5469H148.703L150.492 57.2812Z" fill="white"/>
<rect y="46" width="16" height="16" rx="4" fill="#F9CF64"/>
<path d="M208.047 11.4453H209.203C209.786 11.4401 210.247 11.2891 210.586 10.9922C210.93 10.6953 211.102 10.2656 211.102 9.70312C211.102 9.16146 210.958 8.74219 210.672 8.44531C210.391 8.14323 209.958 7.99219 209.375 7.99219C208.865 7.99219 208.445 8.14062 208.117 8.4375C207.789 8.72917 207.625 9.11198 207.625 9.58594H205.727C205.727 9.0026 205.88 8.47135 206.188 7.99219C206.5 7.51302 206.932 7.14062 207.484 6.875C208.042 6.60417 208.664 6.46875 209.352 6.46875C210.487 6.46875 211.378 6.75521 212.023 7.32812C212.674 7.89583 213 8.6875 213 9.70312C213 10.2135 212.836 10.6953 212.508 11.1484C212.185 11.5964 211.766 11.9349 211.25 12.1641C211.875 12.3776 212.349 12.7135 212.672 13.1719C213 13.6302 213.164 14.1771 213.164 14.8125C213.164 15.8333 212.812 16.6458 212.109 17.25C211.411 17.8542 210.492 18.1562 209.352 18.1562C208.258 18.1562 207.362 17.8646 206.664 17.2812C205.966 16.6979 205.617 15.9219 205.617 14.9531H207.516C207.516 15.4531 207.682 15.8594 208.016 16.1719C208.354 16.4844 208.807 16.6406 209.375 16.6406C209.964 16.6406 210.427 16.4844 210.766 16.1719C211.104 15.8594 211.273 15.4062 211.273 14.8125C211.273 14.2135 211.096 13.7526 210.742 13.4297C210.388 13.1068 209.862 12.9453 209.164 12.9453H208.047V11.4453ZM215.453 12.3594L216.07 6.625H222.18V8.26562H217.648L217.336 10.9844C217.862 10.6823 218.456 10.5312 219.117 10.5312C220.201 10.5312 221.042 10.8776 221.641 11.5703C222.245 12.263 222.547 13.1953 222.547 14.3672C222.547 15.5234 222.214 16.4453 221.547 17.1328C220.88 17.8151 219.966 18.1562 218.805 18.1562C217.763 18.1562 216.898 17.862 216.211 17.2734C215.529 16.6797 215.159 15.8984 215.102 14.9297H216.938C217.01 15.4818 217.208 15.9062 217.531 16.2031C217.854 16.4948 218.276 16.6406 218.797 16.6406C219.38 16.6406 219.833 16.4323 220.156 16.0156C220.484 15.599 220.648 15.0312 220.648 14.3125C220.648 13.6198 220.469 13.0729 220.109 12.6719C219.75 12.2656 219.255 12.0625 218.625 12.0625C218.281 12.0625 217.99 12.1094 217.75 12.2031C217.51 12.2917 217.25 12.4688 216.969 12.7344L215.453 12.3594ZM223.961 8.8125C223.961 8.125 224.182 7.5625 224.625 7.125C225.068 6.68229 225.648 6.46094 226.367 6.46094C227.096 6.46094 227.68 6.68229 228.117 7.125C228.56 7.5625 228.781 8.13802 228.781 8.85156V9.41406C228.781 10.0964 228.56 10.6562 228.117 11.0938C227.68 11.5312 227.102 11.75 226.383 11.75C225.68 11.75 225.099 11.5365 224.641 11.1094C224.188 10.6771 223.961 10.0964 223.961 9.36719V8.8125ZM225.289 9.41406C225.289 9.77344 225.388 10.0651 225.586 10.2891C225.789 10.5078 226.055 10.6172 226.383 10.6172C226.706 10.6172 226.966 10.5078 227.164 10.2891C227.362 10.0651 227.461 9.76302 227.461 9.38281V8.8125C227.461 8.45312 227.359 8.16146 227.156 7.9375C226.958 7.71354 226.695 7.60156 226.367 7.60156C226.039 7.60156 225.776 7.71615 225.578 7.94531C225.385 8.16927 225.289 8.46615 225.289 8.83594V9.41406ZM229.43 15.2109C229.43 14.513 229.656 13.9479 230.109 13.5156C230.562 13.0833 231.141 12.8672 231.844 12.8672C232.552 12.8672 233.13 13.0833 233.578 13.5156C234.031 13.9479 234.258 14.5312 234.258 15.2656V15.8203C234.258 16.4974 234.039 17.0573 233.602 17.5C233.169 17.9375 232.589 18.1562 231.859 18.1562C231.13 18.1562 230.542 17.9401 230.094 17.5078C229.651 17.0703 229.43 16.4948 229.43 15.7812V15.2109ZM230.758 15.8203C230.758 16.1745 230.859 16.4661 231.062 16.6953C231.271 16.9193 231.536 17.0312 231.859 17.0312C232.193 17.0312 232.453 16.9245 232.641 16.7109C232.833 16.4922 232.93 16.1875 232.93 15.7969V15.2109C232.93 14.8464 232.828 14.5547 232.625 14.3359C232.422 14.1172 232.161 14.0078 231.844 14.0078C231.521 14.0078 231.258 14.1172 231.055 14.3359C230.857 14.5547 230.758 14.8568 230.758 15.2422V15.8203ZM226.773 17.1484L225.797 16.5859L231.352 7.69531L232.328 8.25781L226.773 17.1484ZM243.367 16.6406C243.841 16.6406 244.234 16.5026 244.547 16.2266C244.859 15.9505 245.026 15.6094 245.047 15.2031H246.836C246.815 15.7292 246.651 16.2214 246.344 16.6797C246.036 17.1328 245.62 17.4922 245.094 17.7578C244.568 18.0234 244 18.1562 243.391 18.1562C242.208 18.1562 241.271 17.7734 240.578 17.0078C239.885 16.2422 239.539 15.1849 239.539 13.8359V13.6406C239.539 12.3542 239.883 11.3255 240.57 10.5547C241.258 9.77865 242.195 9.39062 243.383 9.39062C244.388 9.39062 245.206 9.6849 245.836 10.2734C246.471 10.8568 246.805 11.625 246.836 12.5781H245.047C245.026 12.0938 244.859 11.6953 244.547 11.3828C244.24 11.0703 243.846 10.9141 243.367 10.9141C242.753 10.9141 242.279 11.138 241.945 11.5859C241.612 12.0286 241.443 12.7031 241.438 13.6094V13.9141C241.438 14.8307 241.602 15.5156 241.93 15.9688C242.263 16.4167 242.742 16.6406 243.367 16.6406ZM250.289 18H248.391V6H250.289V18ZM256.086 18.1562C254.883 18.1562 253.906 17.7786 253.156 17.0234C252.411 16.263 252.039 15.2526 252.039 13.9922V13.7578C252.039 12.9141 252.201 12.1615 252.523 11.5C252.852 10.8333 253.31 10.3151 253.898 9.94531C254.487 9.57552 255.143 9.39062 255.867 9.39062C257.018 9.39062 257.906 9.75781 258.531 10.4922C259.161 11.2266 259.477 12.2656 259.477 13.6094V14.375H253.953C254.01 15.0729 254.242 15.625 254.648 16.0312C255.06 16.4375 255.576 16.6406 256.195 16.6406C257.065 16.6406 257.773 16.2891 258.32 15.5859L259.344 16.5625C259.005 17.0677 258.552 17.4609 257.984 17.7422C257.422 18.0182 256.789 18.1562 256.086 18.1562ZM255.859 10.9141C255.339 10.9141 254.917 11.0964 254.594 11.4609C254.276 11.8255 254.073 12.3333 253.984 12.9844H257.602V12.8438C257.56 12.2083 257.391 11.7292 257.094 11.4062C256.797 11.0781 256.385 10.9141 255.859 10.9141ZM266.008 18C265.924 17.8385 265.852 17.5755 265.789 17.2109C265.185 17.8411 264.445 18.1562 263.57 18.1562C262.721 18.1562 262.029 17.9141 261.492 17.4297C260.956 16.9453 260.688 16.3464 260.688 15.6328C260.688 14.7318 261.021 14.0417 261.688 13.5625C262.359 13.0781 263.318 12.8359 264.562 12.8359H265.727V12.2812C265.727 11.8438 265.604 11.4948 265.359 11.2344C265.115 10.9688 264.742 10.8359 264.242 10.8359C263.81 10.8359 263.456 10.9453 263.18 11.1641C262.904 11.3776 262.766 11.651 262.766 11.9844H260.867C260.867 11.5208 261.021 11.0885 261.328 10.6875C261.635 10.2812 262.052 9.96354 262.578 9.73438C263.109 9.50521 263.701 9.39062 264.352 9.39062C265.341 9.39062 266.13 9.64062 266.719 10.1406C267.307 10.6354 267.609 11.3333 267.625 12.2344V16.0469C267.625 16.8073 267.732 17.4141 267.945 17.8672V18H266.008ZM263.922 16.6328C264.297 16.6328 264.648 16.5417 264.977 16.3594C265.31 16.1771 265.56 15.9323 265.727 15.625V14.0312H264.703C264 14.0312 263.471 14.1536 263.117 14.3984C262.763 14.6432 262.586 14.9896 262.586 15.4375C262.586 15.8021 262.706 16.0938 262.945 16.3125C263.19 16.526 263.516 16.6328 263.922 16.6328ZM271.375 9.54688L271.43 10.5234C272.055 9.76823 272.875 9.39062 273.891 9.39062C275.651 9.39062 276.547 10.3984 276.578 12.4141V18H274.68V12.5234C274.68 11.987 274.562 11.5911 274.328 11.3359C274.099 11.0755 273.721 10.9453 273.195 10.9453C272.43 10.9453 271.859 11.2917 271.484 11.9844V18H269.586V9.54688H271.375ZM280.539 18H278.641V6H280.539V18ZM284.633 18H282.734V9.54688H284.633V18ZM282.617 7.35156C282.617 7.0599 282.708 6.81771 282.891 6.625C283.078 6.43229 283.344 6.33594 283.688 6.33594C284.031 6.33594 284.297 6.43229 284.484 6.625C284.672 6.81771 284.766 7.0599 284.766 7.35156C284.766 7.63802 284.672 7.8776 284.484 8.07031C284.297 8.25781 284.031 8.35156 283.688 8.35156C283.344 8.35156 283.078 8.25781 282.891 8.07031C282.708 7.8776 282.617 7.63802 282.617 7.35156ZM288.469 9.54688L288.523 10.5234C289.148 9.76823 289.969 9.39062 290.984 9.39062C292.745 9.39062 293.641 10.3984 293.672 12.4141V18H291.773V12.5234C291.773 11.987 291.656 11.5911 291.422 11.3359C291.193 11.0755 290.815 10.9453 290.289 10.9453C289.523 10.9453 288.953 11.2917 288.578 11.9844V18H286.68V9.54688H288.469ZM299.336 18.1562C298.133 18.1562 297.156 17.7786 296.406 17.0234C295.661 16.263 295.289 15.2526 295.289 13.9922V13.7578C295.289 12.9141 295.451 12.1615 295.773 11.5C296.102 10.8333 296.56 10.3151 297.148 9.94531C297.737 9.57552 298.393 9.39062 299.117 9.39062C300.268 9.39062 301.156 9.75781 301.781 10.4922C302.411 11.2266 302.727 12.2656 302.727 13.6094V14.375H297.203C297.26 15.0729 297.492 15.625 297.898 16.0312C298.31 16.4375 298.826 16.6406 299.445 16.6406C300.315 16.6406 301.023 16.2891 301.57 15.5859L302.594 16.5625C302.255 17.0677 301.802 17.4609 301.234 17.7422C300.672 18.0182 300.039 18.1562 299.336 18.1562ZM299.109 10.9141C298.589 10.9141 298.167 11.0964 297.844 11.4609C297.526 11.8255 297.323 12.3333 297.234 12.9844H300.852V12.8438C300.81 12.2083 300.641 11.7292 300.344 11.4062C300.047 11.0781 299.635 10.9141 299.109 10.9141ZM308.945 15.7031C308.945 15.3646 308.805 15.1068 308.523 14.9297C308.247 14.7526 307.786 14.5964 307.141 14.4609C306.495 14.3255 305.956 14.1536 305.523 13.9453C304.576 13.487 304.102 12.8229 304.102 11.9531C304.102 11.224 304.409 10.6146 305.023 10.125C305.638 9.63542 306.419 9.39062 307.367 9.39062C308.378 9.39062 309.193 9.64062 309.812 10.1406C310.438 10.6406 310.75 11.2891 310.75 12.0859H308.852C308.852 11.7214 308.716 11.4193 308.445 11.1797C308.174 10.9349 307.815 10.8125 307.367 10.8125C306.951 10.8125 306.609 10.9089 306.344 11.1016C306.083 11.2943 305.953 11.5521 305.953 11.875C305.953 12.1667 306.076 12.3932 306.32 12.5547C306.565 12.7161 307.06 12.8802 307.805 13.0469C308.549 13.2083 309.133 13.4036 309.555 13.6328C309.982 13.8568 310.297 14.1276 310.5 14.4453C310.708 14.763 310.812 15.1484 310.812 15.6016C310.812 16.362 310.497 16.9792 309.867 17.4531C309.237 17.9219 308.411 18.1562 307.391 18.1562C306.698 18.1562 306.081 18.0312 305.539 17.7812C304.997 17.5312 304.576 17.1875 304.273 16.75C303.971 16.3125 303.82 15.8411 303.82 15.3359H305.664C305.69 15.7839 305.859 16.1302 306.172 16.375C306.484 16.6146 306.898 16.7344 307.414 16.7344C307.914 16.7344 308.294 16.6406 308.555 16.4531C308.815 16.2604 308.945 16.0104 308.945 15.7031ZM317.211 15.7031C317.211 15.3646 317.07 15.1068 316.789 14.9297C316.513 14.7526 316.052 14.5964 315.406 14.4609C314.76 14.3255 314.221 14.1536 313.789 13.9453C312.841 13.487 312.367 12.8229 312.367 11.9531C312.367 11.224 312.674 10.6146 313.289 10.125C313.904 9.63542 314.685 9.39062 315.633 9.39062C316.643 9.39062 317.458 9.64062 318.078 10.1406C318.703 10.6406 319.016 11.2891 319.016 12.0859H317.117C317.117 11.7214 316.982 11.4193 316.711 11.1797C316.44 10.9349 316.081 10.8125 315.633 10.8125C315.216 10.8125 314.875 10.9089 314.609 11.1016C314.349 11.2943 314.219 11.5521 314.219 11.875C314.219 12.1667 314.341 12.3932 314.586 12.5547C314.831 12.7161 315.326 12.8802 316.07 13.0469C316.815 13.2083 317.398 13.4036 317.82 13.6328C318.247 13.8568 318.562 14.1276 318.766 14.4453C318.974 14.763 319.078 15.1484 319.078 15.6016C319.078 16.362 318.763 16.9792 318.133 17.4531C317.503 17.9219 316.677 18.1562 315.656 18.1562C314.964 18.1562 314.346 18.0312 313.805 17.7812C313.263 17.5312 312.841 17.1875 312.539 16.75C312.237 16.3125 312.086 15.8411 312.086 15.3359H313.93C313.956 15.7839 314.125 16.1302 314.438 16.375C314.75 16.6146 315.164 16.7344 315.68 16.7344C316.18 16.7344 316.56 16.6406 316.82 16.4531C317.081 16.2604 317.211 16.0104 317.211 15.7031ZM332.125 13.8594C332.125 15.1667 331.828 16.2109 331.234 16.9922C330.641 17.7682 329.844 18.1562 328.844 18.1562C327.917 18.1562 327.174 17.8516 326.617 17.2422V21.25H324.719V9.54688H326.469L326.547 10.4062C327.104 9.72917 327.862 9.39062 328.82 9.39062C329.852 9.39062 330.659 9.77604 331.242 10.5469C331.831 11.3125 332.125 12.3776 332.125 13.7422V13.8594ZM330.234 13.6953C330.234 12.8516 330.065 12.1823 329.727 11.6875C329.393 11.1927 328.914 10.9453 328.289 10.9453C327.513 10.9453 326.956 11.2656 326.617 11.9062V15.6562C326.961 16.3125 327.523 16.6406 328.305 16.6406C328.909 16.6406 329.38 16.3984 329.719 15.9141C330.062 15.4245 330.234 14.6849 330.234 13.6953ZM338.164 11.2812C337.914 11.2396 337.656 11.2188 337.391 11.2188C336.521 11.2188 335.935 11.5521 335.633 12.2188V18H333.734V9.54688H335.547L335.594 10.4922C336.052 9.75781 336.688 9.39062 337.5 9.39062C337.771 9.39062 337.995 9.42708 338.172 9.5L338.164 11.2812ZM338.727 13.6953C338.727 12.8672 338.891 12.1224 339.219 11.4609C339.547 10.7943 340.008 10.2839 340.602 9.92969C341.195 9.57031 341.878 9.39062 342.648 9.39062C343.789 9.39062 344.714 9.75781 345.422 10.4922C346.135 11.2266 346.521 12.2005 346.578 13.4141L346.586 13.8594C346.586 14.6927 346.424 15.4375 346.102 16.0938C345.784 16.75 345.326 17.2578 344.727 17.6172C344.133 17.9766 343.445 18.1562 342.664 18.1562C341.471 18.1562 340.516 17.7604 339.797 16.9688C339.083 16.1719 338.727 15.112 338.727 13.7891V13.6953ZM340.625 13.8594C340.625 14.7292 340.805 15.4115 341.164 15.9062C341.523 16.3958 342.023 16.6406 342.664 16.6406C343.305 16.6406 343.802 16.3906 344.156 15.8906C344.516 15.3906 344.695 14.6589 344.695 13.6953C344.695 12.8411 344.51 12.1641 344.141 11.6641C343.776 11.1641 343.279 10.9141 342.648 10.9141C342.029 10.9141 341.536 11.1615 341.172 11.6562C340.807 12.1458 340.625 12.8802 340.625 13.8594ZM347.859 13.7109C347.859 12.3984 348.167 11.3516 348.781 10.5703C349.401 9.78385 350.221 9.39062 351.242 9.39062C352.206 9.39062 352.964 9.72656 353.516 10.3984L353.602 9.54688H355.312V17.7422C355.312 18.8516 354.966 19.7266 354.273 20.3672C353.586 21.0078 352.656 21.3281 351.484 21.3281C350.865 21.3281 350.258 21.1979 349.664 20.9375C349.076 20.6823 348.628 20.3464 348.32 19.9297L349.219 18.7891C349.802 19.4818 350.521 19.8281 351.375 19.8281C352.005 19.8281 352.503 19.6562 352.867 19.3125C353.232 18.974 353.414 18.474 353.414 17.8125V17.2422C352.867 17.8516 352.138 18.1562 351.227 18.1562C350.237 18.1562 349.427 17.763 348.797 16.9766C348.172 16.1901 347.859 15.1016 347.859 13.7109ZM349.75 13.875C349.75 14.724 349.922 15.3932 350.266 15.8828C350.615 16.3672 351.096 16.6094 351.711 16.6094C352.477 16.6094 353.044 16.2812 353.414 15.625V11.9062C353.055 11.2656 352.492 10.9453 351.727 10.9453C351.102 10.9453 350.615 11.1927 350.266 11.6875C349.922 12.1823 349.75 12.9115 349.75 13.875ZM361.695 11.2812C361.445 11.2396 361.188 11.2188 360.922 11.2188C360.052 11.2188 359.466 11.5521 359.164 12.2188V18H357.266V9.54688H359.078L359.125 10.4922C359.583 9.75781 360.219 9.39062 361.031 9.39062C361.302 9.39062 361.526 9.42708 361.703 9.5L361.695 11.2812ZM367.711 18C367.628 17.8385 367.555 17.5755 367.492 17.2109C366.888 17.8411 366.148 18.1562 365.273 18.1562C364.424 18.1562 363.732 17.9141 363.195 17.4297C362.659 16.9453 362.391 16.3464 362.391 15.6328C362.391 14.7318 362.724 14.0417 363.391 13.5625C364.062 13.0781 365.021 12.8359 366.266 12.8359H367.43V12.2812C367.43 11.8438 367.307 11.4948 367.062 11.2344C366.818 10.9688 366.445 10.8359 365.945 10.8359C365.513 10.8359 365.159 10.9453 364.883 11.1641C364.607 11.3776 364.469 11.651 364.469 11.9844H362.57C362.57 11.5208 362.724 11.0885 363.031 10.6875C363.339 10.2812 363.755 9.96354 364.281 9.73438C364.812 9.50521 365.404 9.39062 366.055 9.39062C367.044 9.39062 367.833 9.64062 368.422 10.1406C369.01 10.6354 369.312 11.3333 369.328 12.2344V16.0469C369.328 16.8073 369.435 17.4141 369.648 17.8672V18H367.711ZM365.625 16.6328C366 16.6328 366.352 16.5417 366.68 16.3594C367.013 16.1771 367.263 15.9323 367.43 15.625V14.0312H366.406C365.703 14.0312 365.174 14.1536 364.82 14.3984C364.466 14.6432 364.289 14.9896 364.289 15.4375C364.289 15.8021 364.409 16.0938 364.648 16.3125C364.893 16.526 365.219 16.6328 365.625 16.6328ZM373.102 9.54688L373.156 10.4297C373.75 9.73698 374.562 9.39062 375.594 9.39062C376.724 9.39062 377.497 9.82292 377.914 10.6875C378.529 9.82292 379.393 9.39062 380.508 9.39062C381.44 9.39062 382.133 9.64844 382.586 10.1641C383.044 10.6797 383.279 11.4401 383.289 12.4453V18H381.391V12.5C381.391 11.9635 381.273 11.5703 381.039 11.3203C380.805 11.0703 380.417 10.9453 379.875 10.9453C379.443 10.9453 379.089 11.0625 378.812 11.2969C378.542 11.526 378.352 11.8281 378.242 12.2031L378.25 18H376.352V12.4375C376.326 11.4427 375.818 10.9453 374.828 10.9453C374.068 10.9453 373.529 11.2552 373.211 11.875V18H371.312V9.54688H373.102Z" fill="white"/>
<rect x="181" y="4" width="16" height="16" rx="4" fill="#AC94F1"/>
<path d="M206.359 54.3594L206.977 48.625H213.086V50.2656H208.555L208.242 52.9844C208.768 52.6823 209.362 52.5312 210.023 52.5312C211.107 52.5312 211.948 52.8776 212.547 53.5703C213.151 54.263 213.453 55.1953 213.453 56.3672C213.453 57.5234 213.12 58.4453 212.453 59.1328C211.786 59.8151 210.872 60.1562 209.711 60.1562C208.669 60.1562 207.805 59.862 207.117 59.2734C206.435 58.6797 206.065 57.8984 206.008 56.9297H207.844C207.917 57.4818 208.115 57.9062 208.438 58.2031C208.76 58.4948 209.182 58.6406 209.703 58.6406C210.286 58.6406 210.74 58.4323 211.062 58.0156C211.391 57.599 211.555 57.0312 211.555 56.3125C211.555 55.6198 211.375 55.0729 211.016 54.6719C210.656 54.2656 210.161 54.0625 209.531 54.0625C209.188 54.0625 208.896 54.1094 208.656 54.2031C208.417 54.2917 208.156 54.4688 207.875 54.7344L206.359 54.3594ZM214.867 50.8125C214.867 50.125 215.089 49.5625 215.531 49.125C215.974 48.6823 216.555 48.4609 217.273 48.4609C218.003 48.4609 218.586 48.6823 219.023 49.125C219.466 49.5625 219.688 50.138 219.688 50.8516V51.4141C219.688 52.0964 219.466 52.6562 219.023 53.0938C218.586 53.5312 218.008 53.75 217.289 53.75C216.586 53.75 216.005 53.5365 215.547 53.1094C215.094 52.6771 214.867 52.0964 214.867 51.3672V50.8125ZM216.195 51.4141C216.195 51.7734 216.294 52.0651 216.492 52.2891C216.695 52.5078 216.961 52.6172 217.289 52.6172C217.612 52.6172 217.872 52.5078 218.07 52.2891C218.268 52.0651 218.367 51.763 218.367 51.3828V50.8125C218.367 50.4531 218.266 50.1615 218.062 49.9375C217.865 49.7135 217.602 49.6016 217.273 49.6016C216.945 49.6016 216.682 49.7161 216.484 49.9453C216.292 50.1693 216.195 50.4661 216.195 50.8359V51.4141ZM220.336 57.2109C220.336 56.513 220.562 55.9479 221.016 55.5156C221.469 55.0833 222.047 54.8672 222.75 54.8672C223.458 54.8672 224.036 55.0833 224.484 55.5156C224.938 55.9479 225.164 56.5312 225.164 57.2656V57.8203C225.164 58.4974 224.945 59.0573 224.508 59.5C224.076 59.9375 223.495 60.1562 222.766 60.1562C222.036 60.1562 221.448 59.9401 221 59.5078C220.557 59.0703 220.336 58.4948 220.336 57.7812V57.2109ZM221.664 57.8203C221.664 58.1745 221.766 58.4661 221.969 58.6953C222.177 58.9193 222.443 59.0312 222.766 59.0312C223.099 59.0312 223.359 58.9245 223.547 58.7109C223.74 58.4922 223.836 58.1875 223.836 57.7969V57.2109C223.836 56.8464 223.734 56.5547 223.531 56.3359C223.328 56.1172 223.068 56.0078 222.75 56.0078C222.427 56.0078 222.164 56.1172 221.961 56.3359C221.763 56.5547 221.664 56.8568 221.664 57.2422V57.8203ZM217.68 59.1484L216.703 58.5859L222.258 49.6953L223.234 50.2578L217.68 59.1484ZM231.469 60V52.9531H230.18V51.5469H231.469V50.7734C231.469 49.8359 231.729 49.112 232.25 48.6016C232.771 48.0911 233.5 47.8359 234.438 47.8359C234.771 47.8359 235.125 47.8828 235.5 47.9766L235.453 49.4609C235.245 49.4193 235.003 49.3984 234.727 49.3984C233.82 49.3984 233.367 49.8646 233.367 50.7969V51.5469H235.086V52.9531H233.367V60H231.469ZM240.008 60.1562C238.805 60.1562 237.828 59.7786 237.078 59.0234C236.333 58.263 235.961 57.2526 235.961 55.9922V55.7578C235.961 54.9141 236.122 54.1615 236.445 53.5C236.773 52.8333 237.232 52.3151 237.82 51.9453C238.409 51.5755 239.065 51.3906 239.789 51.3906C240.94 51.3906 241.828 51.7578 242.453 52.4922C243.083 53.2266 243.398 54.2656 243.398 55.6094V56.375H237.875C237.932 57.0729 238.164 57.625 238.57 58.0312C238.982 58.4375 239.497 58.6406 240.117 58.6406C240.987 58.6406 241.695 58.2891 242.242 57.5859L243.266 58.5625C242.927 59.0677 242.474 59.4609 241.906 59.7422C241.344 60.0182 240.711 60.1562 240.008 60.1562ZM239.781 52.9141C239.26 52.9141 238.839 53.0964 238.516 53.4609C238.198 53.8255 237.995 54.3333 237.906 54.9844H241.523V54.8438C241.482 54.2083 241.312 53.7292 241.016 53.4062C240.719 53.0781 240.307 52.9141 239.781 52.9141ZM248.602 60.1562C247.398 60.1562 246.422 59.7786 245.672 59.0234C244.927 58.263 244.555 57.2526 244.555 55.9922V55.7578C244.555 54.9141 244.716 54.1615 245.039 53.5C245.367 52.8333 245.826 52.3151 246.414 51.9453C247.003 51.5755 247.659 51.3906 248.383 51.3906C249.534 51.3906 250.422 51.7578 251.047 52.4922C251.677 53.2266 251.992 54.2656 251.992 55.6094V56.375H246.469C246.526 57.0729 246.758 57.625 247.164 58.0312C247.576 58.4375 248.091 58.6406 248.711 58.6406C249.581 58.6406 250.289 58.2891 250.836 57.5859L251.859 58.5625C251.521 59.0677 251.068 59.4609 250.5 59.7422C249.938 60.0182 249.305 60.1562 248.602 60.1562ZM248.375 52.9141C247.854 52.9141 247.432 53.0964 247.109 53.4609C246.792 53.8255 246.589 54.3333 246.5 54.9844H250.117V54.8438C250.076 54.2083 249.906 53.7292 249.609 53.4062C249.312 53.0781 248.901 52.9141 248.375 52.9141ZM253.117 55.7109C253.117 54.4089 253.419 53.3646 254.023 52.5781C254.628 51.7865 255.438 51.3906 256.453 51.3906C257.349 51.3906 258.073 51.7031 258.625 52.3281V48H260.523V60H258.805L258.711 59.125C258.143 59.8125 257.385 60.1562 256.438 60.1562C255.448 60.1562 254.646 59.7578 254.031 58.9609C253.422 58.1641 253.117 57.0807 253.117 55.7109ZM255.016 55.875C255.016 56.7344 255.18 57.4062 255.508 57.8906C255.841 58.3698 256.312 58.6094 256.922 58.6094C257.698 58.6094 258.266 58.263 258.625 57.5703V53.9609C258.276 53.2839 257.714 52.9453 256.938 52.9453C256.323 52.9453 255.849 53.1901 255.516 53.6797C255.182 54.1641 255.016 54.8958 255.016 55.875ZM264.523 60H262.625V51.5469H264.523V60ZM262.508 49.3516C262.508 49.0599 262.599 48.8177 262.781 48.625C262.969 48.4323 263.234 48.3359 263.578 48.3359C263.922 48.3359 264.188 48.4323 264.375 48.625C264.562 48.8177 264.656 49.0599 264.656 49.3516C264.656 49.638 264.562 49.8776 264.375 50.0703C264.188 50.2578 263.922 50.3516 263.578 50.3516C263.234 50.3516 262.969 50.2578 262.781 50.0703C262.599 49.8776 262.508 49.638 262.508 49.3516ZM268.359 51.5469L268.414 52.5234C269.039 51.7682 269.859 51.3906 270.875 51.3906C272.635 51.3906 273.531 52.3984 273.562 54.4141V60H271.664V54.5234C271.664 53.987 271.547 53.5911 271.312 53.3359C271.083 53.0755 270.706 52.9453 270.18 52.9453C269.414 52.9453 268.844 53.2917 268.469 53.9844V60H266.57V51.5469H268.359ZM275.172 55.7109C275.172 54.3984 275.479 53.3516 276.094 52.5703C276.714 51.7839 277.534 51.3906 278.555 51.3906C279.518 51.3906 280.276 51.7266 280.828 52.3984L280.914 51.5469H282.625V59.7422C282.625 60.8516 282.279 61.7266 281.586 62.3672C280.898 63.0078 279.969 63.3281 278.797 63.3281C278.177 63.3281 277.57 63.1979 276.977 62.9375C276.388 62.6823 275.94 62.3464 275.633 61.9297L276.531 60.7891C277.115 61.4818 277.833 61.8281 278.688 61.8281C279.318 61.8281 279.815 61.6562 280.18 61.3125C280.544 60.974 280.727 60.474 280.727 59.8125V59.2422C280.18 59.8516 279.451 60.1562 278.539 60.1562C277.549 60.1562 276.74 59.763 276.109 58.9766C275.484 58.1901 275.172 57.1016 275.172 55.7109ZM277.062 55.875C277.062 56.724 277.234 57.3932 277.578 57.8828C277.927 58.3672 278.409 58.6094 279.023 58.6094C279.789 58.6094 280.357 58.2812 280.727 57.625V53.9062C280.367 53.2656 279.805 52.9453 279.039 52.9453C278.414 52.9453 277.927 53.1927 277.578 53.6875C277.234 54.1823 277.062 54.9115 277.062 55.875ZM290.945 49.4922V51.5469H292.438V52.9531H290.945V57.6719C290.945 57.9948 291.008 58.2292 291.133 58.375C291.263 58.5156 291.492 58.5859 291.82 58.5859C292.039 58.5859 292.26 58.5599 292.484 58.5078V59.9766C292.052 60.0964 291.635 60.1562 291.234 60.1562C289.776 60.1562 289.047 59.3516 289.047 57.7422V52.9531H287.656V51.5469H289.047V49.4922H290.945ZM295.766 52.4688C296.385 51.75 297.169 51.3906 298.117 51.3906C299.919 51.3906 300.833 52.4193 300.859 54.4766V60H298.961V54.5469C298.961 53.9635 298.833 53.5521 298.578 53.3125C298.328 53.0677 297.958 52.9453 297.469 52.9453C296.708 52.9453 296.141 53.2839 295.766 53.9609V60H293.867V48H295.766V52.4688ZM306.508 60.1562C305.305 60.1562 304.328 59.7786 303.578 59.0234C302.833 58.263 302.461 57.2526 302.461 55.9922V55.7578C302.461 54.9141 302.622 54.1615 302.945 53.5C303.273 52.8333 303.732 52.3151 304.32 51.9453C304.909 51.5755 305.565 51.3906 306.289 51.3906C307.44 51.3906 308.328 51.7578 308.953 52.4922C309.583 53.2266 309.898 54.2656 309.898 55.6094V56.375H304.375C304.432 57.0729 304.664 57.625 305.07 58.0312C305.482 58.4375 305.997 58.6406 306.617 58.6406C307.487 58.6406 308.195 58.2891 308.742 57.5859L309.766 58.5625C309.427 59.0677 308.974 59.4609 308.406 59.7422C307.844 60.0182 307.211 60.1562 306.508 60.1562ZM306.281 52.9141C305.76 52.9141 305.339 53.0964 305.016 53.4609C304.698 53.8255 304.495 54.3333 304.406 54.9844H308.023V54.8438C307.982 54.2083 307.812 53.7292 307.516 53.4062C307.219 53.0781 306.807 52.9141 306.281 52.9141ZM322.766 55.8594C322.766 57.1667 322.469 58.2109 321.875 58.9922C321.281 59.7682 320.484 60.1562 319.484 60.1562C318.557 60.1562 317.815 59.8516 317.258 59.2422V63.25H315.359V51.5469H317.109L317.188 52.4062C317.745 51.7292 318.503 51.3906 319.461 51.3906C320.492 51.3906 321.299 51.776 321.883 52.5469C322.471 53.3125 322.766 54.3776 322.766 55.7422V55.8594ZM320.875 55.6953C320.875 54.8516 320.706 54.1823 320.367 53.6875C320.034 53.1927 319.555 52.9453 318.93 52.9453C318.154 52.9453 317.596 53.2656 317.258 53.9062V57.6562C317.602 58.3125 318.164 58.6406 318.945 58.6406C319.549 58.6406 320.021 58.3984 320.359 57.9141C320.703 57.4245 320.875 56.6849 320.875 55.6953ZM324.023 55.6953C324.023 54.8672 324.188 54.1224 324.516 53.4609C324.844 52.7943 325.305 52.2839 325.898 51.9297C326.492 51.5703 327.174 51.3906 327.945 51.3906C329.086 51.3906 330.01 51.7578 330.719 52.4922C331.432 53.2266 331.818 54.2005 331.875 55.4141L331.883 55.8594C331.883 56.6927 331.721 57.4375 331.398 58.0938C331.081 58.75 330.622 59.2578 330.023 59.6172C329.43 59.9766 328.742 60.1562 327.961 60.1562C326.768 60.1562 325.812 59.7604 325.094 58.9688C324.38 58.1719 324.023 57.112 324.023 55.7891V55.6953ZM325.922 55.8594C325.922 56.7292 326.102 57.4115 326.461 57.9062C326.82 58.3958 327.32 58.6406 327.961 58.6406C328.602 58.6406 329.099 58.3906 329.453 57.8906C329.812 57.3906 329.992 56.6589 329.992 55.6953C329.992 54.8411 329.807 54.1641 329.438 53.6641C329.073 53.1641 328.576 52.9141 327.945 52.9141C327.326 52.9141 326.833 53.1615 326.469 53.6562C326.104 54.1458 325.922 54.8802 325.922 55.8594ZM333.133 55.6953C333.133 54.8672 333.297 54.1224 333.625 53.4609C333.953 52.7943 334.414 52.2839 335.008 51.9297C335.602 51.5703 336.284 51.3906 337.055 51.3906C338.195 51.3906 339.12 51.7578 339.828 52.4922C340.542 53.2266 340.927 54.2005 340.984 55.4141L340.992 55.8594C340.992 56.6927 340.831 57.4375 340.508 58.0938C340.19 58.75 339.732 59.2578 339.133 59.6172C338.539 59.9766 337.852 60.1562 337.07 60.1562C335.878 60.1562 334.922 59.7604 334.203 58.9688C333.49 58.1719 333.133 57.112 333.133 55.7891V55.6953ZM335.031 55.8594C335.031 56.7292 335.211 57.4115 335.57 57.9062C335.93 58.3958 336.43 58.6406 337.07 58.6406C337.711 58.6406 338.208 58.3906 338.562 57.8906C338.922 57.3906 339.102 56.6589 339.102 55.6953C339.102 54.8411 338.917 54.1641 338.547 53.6641C338.182 53.1641 337.685 52.9141 337.055 52.9141C336.435 52.9141 335.943 53.1615 335.578 53.6562C335.214 54.1458 335.031 54.8802 335.031 55.8594ZM347.023 53.2812C346.773 53.2396 346.516 53.2188 346.25 53.2188C345.38 53.2188 344.794 53.5521 344.492 54.2188V60H342.594V51.5469H344.406L344.453 52.4922C344.911 51.7578 345.547 51.3906 346.359 51.3906C346.63 51.3906 346.854 51.4271 347.031 51.5L347.023 53.2812Z" fill="white"/>
<rect x="181" y="46" width="16" height="16" rx="4" fill="#F38FBF"/>
<path d="M438.992 18H437.102V8.86719L434.312 9.82031V8.21875L438.75 6.58594H438.992V18ZM450.359 13.2109C450.359 14.8464 450.052 16.0807 449.438 16.9141C448.828 17.7422 447.898 18.1562 446.648 18.1562C445.419 18.1562 444.492 17.7526 443.867 16.9453C443.247 16.1328 442.93 14.9323 442.914 13.3438V11.375C442.914 9.73958 443.219 8.51302 443.828 7.69531C444.443 6.8776 445.378 6.46875 446.633 6.46875C447.878 6.46875 448.805 6.86719 449.414 7.66406C450.029 8.46094 450.344 9.65365 450.359 11.2422V13.2109ZM448.461 11.0859C448.461 10.0182 448.315 9.23698 448.023 8.74219C447.732 8.24219 447.268 7.99219 446.633 7.99219C446.013 7.99219 445.557 8.22917 445.266 8.70312C444.974 9.17188 444.82 9.90625 444.805 10.9062V13.4844C444.805 14.5469 444.953 15.3385 445.25 15.8594C445.547 16.3802 446.013 16.6406 446.648 16.6406C447.258 16.6406 447.708 16.401 448 15.9219C448.292 15.4375 448.445 14.6823 448.461 13.6562V11.0859ZM451.961 8.8125C451.961 8.125 452.182 7.5625 452.625 7.125C453.068 6.68229 453.648 6.46094 454.367 6.46094C455.096 6.46094 455.68 6.68229 456.117 7.125C456.56 7.5625 456.781 8.13802 456.781 8.85156V9.41406C456.781 10.0964 456.56 10.6562 456.117 11.0938C455.68 11.5312 455.102 11.75 454.383 11.75C453.68 11.75 453.099 11.5365 452.641 11.1094C452.188 10.6771 451.961 10.0964 451.961 9.36719V8.8125ZM453.289 9.41406C453.289 9.77344 453.388 10.0651 453.586 10.2891C453.789 10.5078 454.055 10.6172 454.383 10.6172C454.706 10.6172 454.966 10.5078 455.164 10.2891C455.362 10.0651 455.461 9.76302 455.461 9.38281V8.8125C455.461 8.45312 455.359 8.16146 455.156 7.9375C454.958 7.71354 454.695 7.60156 454.367 7.60156C454.039 7.60156 453.776 7.71615 453.578 7.94531C453.385 8.16927 453.289 8.46615 453.289 8.83594V9.41406ZM457.43 15.2109C457.43 14.513 457.656 13.9479 458.109 13.5156C458.562 13.0833 459.141 12.8672 459.844 12.8672C460.552 12.8672 461.13 13.0833 461.578 13.5156C462.031 13.9479 462.258 14.5312 462.258 15.2656V15.8203C462.258 16.4974 462.039 17.0573 461.602 17.5C461.169 17.9375 460.589 18.1562 459.859 18.1562C459.13 18.1562 458.542 17.9401 458.094 17.5078C457.651 17.0703 457.43 16.4948 457.43 15.7812V15.2109ZM458.758 15.8203C458.758 16.1745 458.859 16.4661 459.062 16.6953C459.271 16.9193 459.536 17.0312 459.859 17.0312C460.193 17.0312 460.453 16.9245 460.641 16.7109C460.833 16.4922 460.93 16.1875 460.93 15.7969V15.2109C460.93 14.8464 460.828 14.5547 460.625 14.3359C460.422 14.1172 460.161 14.0078 459.844 14.0078C459.521 14.0078 459.258 14.1172 459.055 14.3359C458.857 14.5547 458.758 14.8568 458.758 15.2422V15.8203ZM454.773 17.1484L453.797 16.5859L459.352 7.69531L460.328 8.25781L454.773 17.1484ZM469.766 10.4688C470.385 9.75 471.169 9.39062 472.117 9.39062C473.919 9.39062 474.833 10.4193 474.859 12.4766V18H472.961V12.5469C472.961 11.9635 472.833 11.5521 472.578 11.3125C472.328 11.0677 471.958 10.9453 471.469 10.9453C470.708 10.9453 470.141 11.2839 469.766 11.9609V18H467.867V6H469.766V10.4688ZM480.508 18.1562C479.305 18.1562 478.328 17.7786 477.578 17.0234C476.833 16.263 476.461 15.2526 476.461 13.9922V13.7578C476.461 12.9141 476.622 12.1615 476.945 11.5C477.273 10.8333 477.732 10.3151 478.32 9.94531C478.909 9.57552 479.565 9.39062 480.289 9.39062C481.44 9.39062 482.328 9.75781 482.953 10.4922C483.583 11.2266 483.898 12.2656 483.898 13.6094V14.375H478.375C478.432 15.0729 478.664 15.625 479.07 16.0312C479.482 16.4375 479.997 16.6406 480.617 16.6406C481.487 16.6406 482.195 16.2891 482.742 15.5859L483.766 16.5625C483.427 17.0677 482.974 17.4609 482.406 17.7422C481.844 18.0182 481.211 18.1562 480.508 18.1562ZM480.281 10.9141C479.76 10.9141 479.339 11.0964 479.016 11.4609C478.698 11.8255 478.495 12.3333 478.406 12.9844H482.023V12.8438C481.982 12.2083 481.812 11.7292 481.516 11.4062C481.219 11.0781 480.807 10.9141 480.281 10.9141ZM487.398 18H485.5V6H487.398V18ZM496.875 13.8594C496.875 15.1667 496.578 16.2109 495.984 16.9922C495.391 17.7682 494.594 18.1562 493.594 18.1562C492.667 18.1562 491.924 17.8516 491.367 17.2422V21.25H489.469V9.54688H491.219L491.297 10.4062C491.854 9.72917 492.612 9.39062 493.57 9.39062C494.602 9.39062 495.409 9.77604 495.992 10.5469C496.581 11.3125 496.875 12.3776 496.875 13.7422V13.8594ZM494.984 13.6953C494.984 12.8516 494.815 12.1823 494.477 11.6875C494.143 11.1927 493.664 10.9453 493.039 10.9453C492.263 10.9453 491.706 11.2656 491.367 11.9062V15.6562C491.711 16.3125 492.273 16.6406 493.055 16.6406C493.659 16.6406 494.13 16.3984 494.469 15.9141C494.812 15.4245 494.984 14.6849 494.984 13.6953ZM500.508 18H498.609V9.54688H500.508V18ZM498.492 7.35156C498.492 7.0599 498.583 6.81771 498.766 6.625C498.953 6.43229 499.219 6.33594 499.562 6.33594C499.906 6.33594 500.172 6.43229 500.359 6.625C500.547 6.81771 500.641 7.0599 500.641 7.35156C500.641 7.63802 500.547 7.8776 500.359 8.07031C500.172 8.25781 499.906 8.35156 499.562 8.35156C499.219 8.35156 498.953 8.25781 498.766 8.07031C498.583 7.8776 498.492 7.63802 498.492 7.35156ZM504.344 9.54688L504.398 10.5234C505.023 9.76823 505.844 9.39062 506.859 9.39062C508.62 9.39062 509.516 10.3984 509.547 12.4141V18H507.648V12.5234C507.648 11.987 507.531 11.5911 507.297 11.3359C507.068 11.0755 506.69 10.9453 506.164 10.9453C505.398 10.9453 504.828 11.2917 504.453 11.9844V18H502.555V9.54688H504.344ZM511.156 13.7109C511.156 12.3984 511.464 11.3516 512.078 10.5703C512.698 9.78385 513.518 9.39062 514.539 9.39062C515.503 9.39062 516.26 9.72656 516.812 10.3984L516.898 9.54688H518.609V17.7422C518.609 18.8516 518.263 19.7266 517.57 20.3672C516.883 21.0078 515.953 21.3281 514.781 21.3281C514.161 21.3281 513.555 21.1979 512.961 20.9375C512.372 20.6823 511.924 20.3464 511.617 19.9297L512.516 18.7891C513.099 19.4818 513.818 19.8281 514.672 19.8281C515.302 19.8281 515.799 19.6562 516.164 19.3125C516.529 18.974 516.711 18.474 516.711 17.8125V17.2422C516.164 17.8516 515.435 18.1562 514.523 18.1562C513.534 18.1562 512.724 17.763 512.094 16.9766C511.469 16.1901 511.156 15.1016 511.156 13.7109ZM513.047 13.875C513.047 14.724 513.219 15.3932 513.562 15.8828C513.911 16.3672 514.393 16.6094 515.008 16.6094C515.773 16.6094 516.341 16.2812 516.711 15.625V11.9062C516.352 11.2656 515.789 10.9453 515.023 10.9453C514.398 10.9453 513.911 11.1927 513.562 11.6875C513.219 12.1823 513.047 12.9115 513.047 13.875ZM531.953 13.8594C531.953 15.1667 531.656 16.2109 531.062 16.9922C530.469 17.7682 529.672 18.1562 528.672 18.1562C527.745 18.1562 527.003 17.8516 526.445 17.2422V21.25H524.547V9.54688H526.297L526.375 10.4062C526.932 9.72917 527.69 9.39062 528.648 9.39062C529.68 9.39062 530.487 9.77604 531.07 10.5469C531.659 11.3125 531.953 12.3776 531.953 13.7422V13.8594ZM530.062 13.6953C530.062 12.8516 529.893 12.1823 529.555 11.6875C529.221 11.1927 528.742 10.9453 528.117 10.9453C527.341 10.9453 526.784 11.2656 526.445 11.9062V15.6562C526.789 16.3125 527.352 16.6406 528.133 16.6406C528.737 16.6406 529.208 16.3984 529.547 15.9141C529.891 15.4245 530.062 14.6849 530.062 13.6953ZM537.289 18.1562C536.086 18.1562 535.109 17.7786 534.359 17.0234C533.615 16.263 533.242 15.2526 533.242 13.9922V13.7578C533.242 12.9141 533.404 12.1615 533.727 11.5C534.055 10.8333 534.513 10.3151 535.102 9.94531C535.69 9.57552 536.346 9.39062 537.07 9.39062C538.221 9.39062 539.109 9.75781 539.734 10.4922C540.365 11.2266 540.68 12.2656 540.68 13.6094V14.375H535.156C535.214 15.0729 535.445 15.625 535.852 16.0312C536.263 16.4375 536.779 16.6406 537.398 16.6406C538.268 16.6406 538.977 16.2891 539.523 15.5859L540.547 16.5625C540.208 17.0677 539.755 17.4609 539.188 17.7422C538.625 18.0182 537.992 18.1562 537.289 18.1562ZM537.062 10.9141C536.542 10.9141 536.12 11.0964 535.797 11.4609C535.479 11.8255 535.276 12.3333 535.188 12.9844H538.805V12.8438C538.763 12.2083 538.594 11.7292 538.297 11.4062C538 11.0781 537.589 10.9141 537.062 10.9141ZM541.805 13.6953C541.805 12.8672 541.969 12.1224 542.297 11.4609C542.625 10.7943 543.086 10.2839 543.68 9.92969C544.273 9.57031 544.956 9.39062 545.727 9.39062C546.867 9.39062 547.792 9.75781 548.5 10.4922C549.214 11.2266 549.599 12.2005 549.656 13.4141L549.664 13.8594C549.664 14.6927 549.503 15.4375 549.18 16.0938C548.862 16.75 548.404 17.2578 547.805 17.6172C547.211 17.9766 546.523 18.1562 545.742 18.1562C544.549 18.1562 543.594 17.7604 542.875 16.9688C542.161 16.1719 541.805 15.112 541.805 13.7891V13.6953ZM543.703 13.8594C543.703 14.7292 543.883 15.4115 544.242 15.9062C544.602 16.3958 545.102 16.6406 545.742 16.6406C546.383 16.6406 546.88 16.3906 547.234 15.8906C547.594 15.3906 547.773 14.6589 547.773 13.6953C547.773 12.8411 547.589 12.1641 547.219 11.6641C546.854 11.1641 546.357 10.9141 545.727 10.9141C545.107 10.9141 544.615 11.1615 544.25 11.6562C543.885 12.1458 543.703 12.8802 543.703 13.8594ZM558.672 13.8594C558.672 15.1667 558.375 16.2109 557.781 16.9922C557.188 17.7682 556.391 18.1562 555.391 18.1562C554.464 18.1562 553.721 17.8516 553.164 17.2422V21.25H551.266V9.54688H553.016L553.094 10.4062C553.651 9.72917 554.409 9.39062 555.367 9.39062C556.398 9.39062 557.206 9.77604 557.789 10.5469C558.378 11.3125 558.672 12.3776 558.672 13.7422V13.8594ZM556.781 13.6953C556.781 12.8516 556.612 12.1823 556.273 11.6875C555.94 11.1927 555.461 10.9453 554.836 10.9453C554.06 10.9453 553.503 11.2656 553.164 11.9062V15.6562C553.508 16.3125 554.07 16.6406 554.852 16.6406C555.456 16.6406 555.927 16.3984 556.266 15.9141C556.609 15.4245 556.781 14.6849 556.781 13.6953ZM562.305 18H560.406V6H562.305V18ZM568.102 18.1562C566.898 18.1562 565.922 17.7786 565.172 17.0234C564.427 16.263 564.055 15.2526 564.055 13.9922V13.7578C564.055 12.9141 564.216 12.1615 564.539 11.5C564.867 10.8333 565.326 10.3151 565.914 9.94531C566.503 9.57552 567.159 9.39062 567.883 9.39062C569.034 9.39062 569.922 9.75781 570.547 10.4922C571.177 11.2266 571.492 12.2656 571.492 13.6094V14.375H565.969C566.026 15.0729 566.258 15.625 566.664 16.0312C567.076 16.4375 567.591 16.6406 568.211 16.6406C569.081 16.6406 569.789 16.2891 570.336 15.5859L571.359 16.5625C571.021 17.0677 570.568 17.4609 570 17.7422C569.438 18.0182 568.805 18.1562 568.102 18.1562ZM567.875 10.9141C567.354 10.9141 566.932 11.0964 566.609 11.4609C566.292 11.8255 566.089 12.3333 566 12.9844H569.617V12.8438C569.576 12.2083 569.406 11.7292 569.109 11.4062C568.812 11.0781 568.401 10.9141 567.875 10.9141Z" fill="white"/>
<rect x="409" y="4" width="16" height="16" rx="4" fill="#FFF0CA"/>
</svg>
